# xmcd
#
# Track frame offsets:
#   150
#   12930
#   31912
#   56260
#   72917
#   96437
#   113377
#   137497
#
# Disc length: 2076 seconds
#
# Revision: 0
# Processed by: cddbd v1.5.2PL0 Copyright (c) Steve Scherf et al.
# Submitted via: GXTranscoder 2.0.1939
#
DISCID=5c081a08
DTITLE=shirley king - jump through my keyhole
DYEAR=1992
DGENRE=Blues
TTITLE0=jump through my keyhole
TTITLE1=i ain't got it
TTITLE2=3 o'clock blues
TTITLE3=pass it on
TTITLE4=going down slow
TTITLE5=got my mojo working
TTITLE6=it's too bad baby
TTITLE7=everyday i have the blues
EXTD=
EXTT0=
EXTT1=
EXTT2=
EXTT3=
EXTT4=
EXTT5=
EXTT6=
EXTT7=
PLAYORDER=
